M48
; DRILL file {KiCad 7.0.7} date Tue May 21 12:30:40 2024
; FORMAT={-:-/ absolute / metric / decimal}
; #@! TF.CreationDate,2024-05-21T12:30:40-04:00
; #@! TF.GenerationSoftware,Kicad,Pcbnew,7.0.7
; #@! TF.FileFunction,Plated,1,2,PTH
FMAT,2
METRIC
; #@! TA.AperFunction,Plated,PTH,ViaDrill
T1C0.400
; #@! TA.AperFunction,Plated,PTH,ComponentDrill
T2C0.600
; #@! TA.AperFunction,Plated,PTH,ComponentDrill
T3C1.000
%
G90
G05
T1
X140.716Y-109.474
X141.898Y-107.823
X142.24Y-104.648
X142.367Y-99.147
X142.367Y-102.743
X143.356Y-104.786
X143.383Y-102.755
X144.272Y-97.028
X145.415Y-96.266
X145.542Y-103.759
X146.558Y-98.425
X147.066Y-109.153
X147.089Y-104.712
X148.336Y-103.759
X148.463Y-98.933
X148.971Y-97.028
X149.987Y-99.695
X150.622Y-96.901
X151.384Y-107.315
T3
X154.94Y-97.409
X154.94Y-99.949
X154.94Y-102.489
X154.94Y-105.029
X154.94Y-107.569
X154.94Y-110.109
T2
G00X136.325Y-99.36
M15
G01X135.525Y-99.36
M16
G05
G00X136.325Y-108.0
M15
G01X135.525Y-108.0
M16
G05
G00X140.675Y-99.36
M15
G01X139.575Y-99.36
M16
G05
G00X140.675Y-108.0
M15
G01X139.575Y-108.0
M16
G05
T0
M30
